<?xml version="1.0" encoding="UTF-8" standalone="no"?>
<!-- Created with Inkscape (http://www.inkscape.org/) -->

<svg
   width="128.29108mm"
   height="134.7666mm"
   viewBox="0 0 128.29108 134.7666"
   version="1.1"
   id="svg5"
   xml:space="preserve"
   inkscape:version="1.2.2 (732a01da63, 2022-12-09)"
   sodipodi:docname="modio.svg"
   xmlns:inkscape="http://www.inkscape.org/namespaces/inkscape"
   xmlns:sodipodi="http://sodipodi.sourceforge.net/DTD/sodipodi-0.dtd"
   xmlns="http://www.w3.org/2000/svg"
   xmlns:svg="http://www.w3.org/2000/svg"><sodipodi:namedview
     id="namedview7"
     pagecolor="#ffffff"
     bordercolor="#000000"
     borderopacity="0.25"
     inkscape:showpageshadow="2"
     inkscape:pageopacity="0.0"
     inkscape:pagecheckerboard="0"
     inkscape:deskcolor="#d1d1d1"
     inkscape:document-units="mm"
     showgrid="false"
     inkscape:zoom="0.73851712"
     inkscape:cx="221.38959"
     inkscape:cy="304.66457"
     inkscape:window-width="1920"
     inkscape:window-height="1009"
     inkscape:window-x="-8"
     inkscape:window-y="-8"
     inkscape:window-maximized="1"
     inkscape:current-layer="g304" /><defs
     id="defs2" /><g
     inkscape:label="Capa 1"
     inkscape:groupmode="layer"
     id="layer1"
     transform="translate(-46.441284,-67.965111)"><g
       id="g304"
       transform="translate(11.464415,36.542822)"><path
         style="fill:#d0d0d0;fill-opacity:1;stroke-width:0.264583"
         d="m 91.731525,165.71664 c 0.190994,-0.0764 0.419197,-0.067 0.507118,0.0209 0.08792,0.0879 -0.06835,0.15045 -0.347265,0.13896 -0.308227,-0.0127 -0.37092,-0.0754 -0.159853,-0.15985 z m 7.937499,0 c 0.190995,-0.0764 0.419196,-0.067 0.507116,0.0209 0.0879,0.0879 -0.0684,0.15045 -0.347263,0.13896 -0.308226,-0.0127 -0.370919,-0.0754 -0.159853,-0.15985 z M 79.43702,163.63701 c -0.08617,-0.22456 -0.09756,-0.4674 -0.02529,-0.53966 0.07225,-0.0723 0.194882,0.11147 0.2725,0.40829 0.164875,0.63048 -0.01831,0.72784 -0.2472,0.13137 z m 34.8337,-14.49117 c 0,-0.0455 0.38695,-0.43249 0.85989,-0.85989 l 0.8599,-0.77711 -0.77711,0.8599 c -0.72437,0.80154 -0.94268,0.98151 -0.94268,0.7771 z m -42.217688,-2.89377 -0.777105,-0.8599 0.859895,0.77711 c 0.801545,0.72437 0.981512,0.94269 0.777105,0.94269 -0.04553,0 -0.432488,-0.38696 -0.859895,-0.8599 z m 20.243026,-19.44687 -0.911799,-0.99219 0.992187,0.9118 c 0.923507,0.84868 1.113841,1.07257 0.911799,1.07257 -0.04421,0 -0.490698,-0.44648 -0.992187,-0.99218 z M 71.474941,97.238009 c 0.0029,-0.582083 0.05712,-0.789053 0.120406,-0.459935 0.06329,0.329117 0.06088,0.805367 -0.0053,1.058333 -0.06622,0.252965 -0.118004,-0.01632 -0.115067,-0.598398 z M 43.164526,96.973426 c 0.0029,-0.582083 0.05712,-0.789054 0.120406,-0.459936 0.06329,0.329118 0.06088,0.805368 -0.0053,1.058334 -0.06622,0.252965 -0.118003,-0.01632 -0.115067,-0.598398 z m 28.310415,-2.38125 c 0.0029,-0.582083 0.05712,-0.789053 0.120406,-0.459936 0.06329,0.329118 0.06088,0.805368 -0.0053,1.058334 -0.06622,0.252965 -0.118004,-0.01632 -0.115067,-0.598398 z m 50.489579,0.507119 c 0.0127,-0.308226 0.0754,-0.370919 0.15985,-0.159853 0.0764,0.190995 0.067,0.419198 -0.0209,0.507119 -0.0879,0.08792 -0.15046,-0.06835 -0.13897,-0.347266 z m 9.18992,-2.40765 c 0.19099,-0.07643 0.4192,-0.06703 0.50712,0.02088 0.0879,0.08792 -0.0684,0.150452 -0.34727,0.138964 -0.30822,-0.0127 -0.37092,-0.07539 -0.15985,-0.159851 z m 8.20208,-8.202083 c 0.191,-0.07643 0.4192,-0.06703 0.50712,0.02088 0.0879,0.08792 -0.0684,0.150452 -0.34726,0.138964 -0.30823,-0.0127 -0.37092,-0.07539 -0.15986,-0.15985 z m -4.23333,-26.987499 c 0.19099,-0.07643 0.4192,-0.06703 0.50712,0.02088 0.0879,0.08792 -0.0684,0.150453 -0.34727,0.138965 -0.30822,-0.0127 -0.37092,-0.07539 -0.15985,-0.159851 z m 2.91042,0 c 0.19099,-0.07643 0.4192,-0.06703 0.50711,0.02088 0.0879,0.08792 -0.0683,0.150453 -0.34726,0.138965 -0.30823,-0.0127 -0.37092,-0.07539 -0.15985,-0.159851 z M 120.0578,51.134366 c -0.32911,-0.419644 -0.31975,-0.429002 0.0999,-0.09989 0.44073,0.345644 0.58089,0.562916 0.36313,0.562916 -0.0549,0 -0.2633,-0.20836 -0.46302,-0.463021 z M 91.450405,30.520076 c 0.181901,-0.0734 0.479557,-0.0734 0.661458,0 0.181901,0.0734 0.03307,0.133452 -0.330729,0.133452 -0.363802,0 -0.51263,-0.06005 -0.330729,-0.133452 z m 8.483202,-0.0055 c 0.190993,-0.07643 0.419203,-0.06703 0.507123,0.02089 0.0879,0.08792 -0.0684,0.150453 -0.34727,0.138964 -0.308226,-0.0127 -0.370919,-0.07539 -0.159853,-0.159852 z"
         id="path312" /><path
         style="fill:#b9b9b9;fill-opacity:1;stroke-width:0.264583"
         d="m 92.646065,165.71403 c 0.257431,-0.0671 0.614619,-0.0627 0.79375,0.01 0.17913,0.0725 -0.03149,0.12737 -0.468056,0.12197 -0.436563,-0.005 -0.583126,-0.0647 -0.325694,-0.13177 z m 5.948089,0.008 c 0.181901,-0.0734 0.479558,-0.0734 0.661459,0 0.181901,0.0734 0.03307,0.13345 -0.330729,0.13345 -0.363803,0 -0.512631,-0.0601 -0.33073,-0.13345 z M 79.387493,162.4578 c 0,-0.3638 0.06005,-0.51263 0.133453,-0.33073 0.0734,0.1819 0.0734,0.47956 0,0.66146 -0.0734,0.1819 -0.133453,0.0331 -0.133453,-0.33073 z m 65.574887,-17.82698 c 0,-0.0549 0.20836,-0.2633 0.46302,-0.46302 0.41965,-0.32911 0.42901,-0.31975 0.0999,0.0999 -0.34565,0.44073 -0.56292,0.58089 -0.56292,0.36313 z m -12.76614,-3.51492 c 0.1819,-0.0734 0.47955,-0.0734 0.66145,0 0.18191,0.0734 0.0331,0.13346 -0.33072,0.13346 -0.36381,0 -0.51263,-0.0601 -0.33073,-0.13346 z m -67.931771,-4.98414 c 0.790421,-0.80037 1.496663,-1.45521 1.569423,-1.45521 0.07276,0 -0.514419,0.65484 -1.30484,1.45521 -0.790422,0.80036 -1.496663,1.45521 -1.569424,1.45521 -0.07276,0 0.514419,-0.65485 1.304841,-1.45521 z m 31.485415,-10.81552 c 0,-0.0549 0.208359,-0.2633 0.46302,-0.46302 0.419646,-0.32911 0.429004,-0.31975 0.0999,0.0999 -0.345644,0.44073 -0.562917,0.58089 -0.562917,0.36313 z m 59.762076,-8.56521 c -0.3291,-0.41965 -0.31975,-0.429 0.0999,-0.0999 0.25466,0.19972 0.46302,0.40808 0.46302,0.46302 0,0.21777 -0.21727,0.0776 -0.56292,-0.36312 z M 121.98541,102.1328 c 0,-0.3638 0.0601,-0.51263 0.13345,-0.33073 0.0734,0.1819 0.0734,0.47956 0,0.66146 -0.0734,0.1819 -0.13345,0.0331 -0.13345,-0.33073 z m 26.50124,-2.645832 c 0,-0.945886 0.048,-1.332839 0.10671,-0.859896 0.0587,0.472942 0.0587,1.246849 0,1.719788 -0.0587,0.47295 -0.10671,0.086 -0.10671,-0.859892 z M 43.118691,98.274295 c 0.0127,-0.308226 0.07539,-0.370919 0.159853,-0.159853 0.07643,0.190994 0.06703,0.4192 -0.02089,0.507119 -0.08792,0.08792 -0.150453,-0.06835 -0.138965,-0.347266 z m 28.310416,-2.38125 c 0.0127,-0.308226 0.07539,-0.370919 0.159851,-0.159853 0.07643,0.190995 0.06703,0.419198 -0.02088,0.507119 -0.08792,0.08792 -0.150453,-0.06835 -0.138964,-0.347266 z m 50.535413,0 c 0.0127,-0.308226 0.0754,-0.370919 0.15985,-0.159853 0.0764,0.190995 0.067,0.419198 -0.0209,0.507119 -0.0879,0.08792 -0.15046,-0.06835 -0.13897,-0.347266 z M 43.139579,95.518218 c 0,-0.363802 0.06005,-0.51263 0.133452,-0.330729 0.0734,0.181901 0.0734,0.479557 0,0.661458 -0.0734,0.181901 -0.133452,0.03307 -0.133452,-0.330729 z m 92.099361,-2.563635 c 0.25467,-0.06655 0.67138,-0.06655 0.92605,0 0.25466,0.06655 0.0463,0.121002 -0.46302,0.121002 -0.50933,0 -0.71769,-0.05445 -0.46303,-0.121002 z m -2.77812,-8.45951 c 0.1819,-0.0734 0.47956,-0.0734 0.66146,0 0.1819,0.0734 0.0331,0.133454 -0.33073,0.133454 -0.3638,0 -0.51263,-0.06006 -0.33073,-0.133454 z m 6.10195,-0.0055 c 0.191,-0.07643 0.4192,-0.06703 0.50712,0.02088 0.0879,0.08792 -0.0683,0.150452 -0.34726,0.138964 -0.30823,-0.0127 -0.37092,-0.07539 -0.15986,-0.15985 z M 35.809312,79.312489 34.763428,78.18801 l 1.124479,1.045885 c 1.045755,0.972661 1.246062,1.203074 1.045885,1.203074 -0.04323,0 -0.549243,-0.506016 -1.12448,-1.12448 z m 23.229636,-24.19332 c 0.254661,-0.06655 0.67138,-0.06655 0.926042,0 0.254661,0.06655 0.0463,0.121 -0.463021,0.121 -0.509323,0 -0.717682,-0.05445 -0.463021,-0.121 z m 33.46979,-24.599093 c 0.181901,-0.0734 0.479557,-0.0734 0.661458,0 0.181901,0.0734 0.03307,0.133452 -0.330729,0.133452 -0.363802,0 -0.51263,-0.06005 -0.330729,-0.133452 z m 6.35,0 c 0.181901,-0.0734 0.479557,-0.0734 0.661458,0 0.181901,0.0734 0.03307,0.133452 -0.330729,0.133452 -0.363802,0 -0.51263,-0.06005 -0.330729,-0.133452 z"
         id="path310" /><path
         style="fill:#ffffff;fill-opacity:1;stroke-width:0.264583"
         d="m 93.205738,166.03126 c -0.10215,-0.10217 -1.10719,-0.22124 -2.23341,-0.26459 -1.12623,-0.0433 -2.04871,-0.18162 -2.04996,-0.30728 -0.001,-0.12565 -0.35656,-0.17647 -0.78957,-0.11291 -0.43301,0.0635 -0.81997,0.0205 -0.8599,-0.0956 -0.0399,-0.11614 -0.63756,-0.24392 -1.32807,-0.28396 -0.6905,-0.04 -1.25605,-0.16209 -1.25677,-0.27123 -7.9e-4,-0.10914 -0.28622,-0.19844 -0.63445,-0.19844 -0.6937,0 -0.95435,-0.43522 -0.95435,-1.59352 0,-0.41607 -0.12101,-0.83128 -0.2689,-0.92268 -0.1479,-0.0914 -0.19546,-0.28503 -0.10569,-0.43027 0.22987,-0.37195 -0.4255,-3.66811 -0.72932,-3.66811 -0.13763,0 -0.1888,-0.0994 -0.1137,-0.22093 0.18993,-0.30731 -0.40576,-2.16032 -0.69448,-2.16032 -0.1297,0 -0.1743,-0.0995 -0.0991,-0.22117 0.19545,-0.31624 -1.34778,-3.48299 -1.69734,-3.48299 -0.16029,0 -0.22711,-0.10409 -0.14849,-0.2313 0.0786,-0.12722 -0.12908,-0.52482 -0.46156,-0.88358 -0.33248,-0.35875 -0.56182,-0.78034 -0.50964,-0.93687 0.0522,-0.15653 -0.15155,-0.36281 -0.45271,-0.45839 -0.30117,-0.0956 -0.4847,-0.27553 -0.40786,-0.39987 0.11476,-0.18567 -1.54118,-1.90995 -4.08538,-4.25396 -0.49964,-0.46032 -1.36034,-0.88089 -1.66905,-0.81554 -0.10914,0.0231 -0.19844,-0.0683 -0.19844,-0.20316 0,-0.30025 -2.57542,-1.79114 -3.30729,-1.91456 -0.29104,-0.0491 -0.69334,-0.24491 -0.89401,-0.43518 -0.20067,-0.19027 -0.52809,-0.2833 -0.7276,-0.20674 -0.19952,0.0766 -0.36276,0.0111 -0.36276,-0.14538 0,-0.15653 -0.1786,-0.21606 -0.39688,-0.13229 -0.21828,0.0838 -0.39687,0.037 -0.39687,-0.10399 0,-0.14095 -0.24369,-0.25628 -0.54152,-0.25628 -0.52724,0 -0.52898,-0.0167 -0.0662,-0.6342 0.26145,-0.3488 0.55163,-0.58796 0.64484,-0.53145 0.2377,0.14411 4.46057,-4.09025 4.4615,-4.47363 5.3e-4,-0.17261 0.3582,-0.55197 0.79506,-0.84301 0.43687,-0.29104 0.74026,-0.6719 0.6742,-0.84635 -0.0661,-0.17445 0.10586,-0.3889 0.38203,-0.47656 0.27617,-0.0876 0.56644,-0.36164 0.64504,-0.60885 0.0786,-0.24722 0.44801,-0.77834 0.82093,-1.18027 0.37292,-0.40193 0.61304,-0.83594 0.53361,-0.96446 -0.0794,-0.12853 0.041,-0.30485 0.2677,-0.39183 0.22667,-0.087 0.33802,-0.27805 0.24745,-0.4246 -0.0906,-0.14655 -0.008,-0.26645 0.18322,-0.26645 0.33861,0 1.18348,-1.5213 1.06532,-1.91823 -0.0325,-0.10914 0.0569,-0.19844 0.19872,-0.19844 0.30418,0 1.1744,-1.58561 0.87349,-1.59155 -0.11288,-0.002 -0.0724,-0.0915 0.09,-0.19844 0.42682,-0.28107 1.43205,-2.3477 1.23688,-2.54287 -0.0908,-0.0908 -0.0191,-0.16506 0.15924,-0.16506 0.17836,0 0.25071,-0.11906 0.16077,-0.26458 -0.0899,-0.14552 -0.0491,-0.26458 0.0908,-0.26458 0.13987,0 0.37883,-0.35719 0.53102,-0.79375 0.15219,-0.43657 0.21486,-0.79375 0.13927,-0.79375 -0.0756,0 0.0565,-0.19395 0.29357,-0.43099 0.23704,-0.23705 0.36835,-0.59424 0.29179,-0.79375 -0.0766,-0.19952 -0.0239,-0.36276 0.11707,-0.36276 0.14095,0 0.25628,-0.1786 0.25628,-0.39688 0,-0.65712 0.71188,-0.46216 3.45223,0.94546 1.43728,0.73828 2.70703,1.35958 2.82165,1.38066 0.11463,0.0211 0.46019,0.30999 0.76792,0.64204 0.30773,0.33204 0.69468,0.60372 0.85989,0.60372 0.16522,0 0.30039,0.11906 0.30039,0.26458 0,0.14552 0.1786,0.26458 0.39688,0.26458 0.21828,0 0.39687,0.11907 0.39687,0.26459 0,0.14552 0.18233,0.26458 0.40518,0.26458 0.22285,0 0.47371,0.17859 0.55747,0.39687 0.0838,0.21829 0.31397,0.39688 0.51156,0.39688 0.19759,0 0.49057,0.24536 0.65106,0.54525 0.1605,0.29988 0.42584,0.50056 0.58966,0.44596 0.16382,-0.0546 0.64155,0.29216 1.06162,0.7706 0.42008,0.47844 0.84353,0.84434 0.94101,0.81312 0.0975,-0.0312 0.75907,0.56727 1.47021,1.32998 0.71114,0.76272 1.3966,1.38676 1.52324,1.38676 0.31667,0 3.930662,-3.68201 3.930662,-4.00464 0,-0.14296 0.10103,-0.19749 0.22451,-0.12117 0.25472,0.15742 1.36299,-0.79219 1.36299,-1.16786 0,-0.13529 0.16323,-0.18334 0.36273,-0.10678 0.1995,0.0765 0.43389,-0.0462 0.52086,-0.27289 0.087,-0.22664 0.33244,-0.41208 0.54548,-0.41208 0.21304,0 0.46216,-0.23571 0.55359,-0.52379 0.0914,-0.28809 0.24829,-0.51334 0.34856,-0.50056 0.39402,0.0502 1.37294,-0.3733 1.37294,-0.59401 0,-0.12855 0.17859,-0.23372 0.39687,-0.23372 0.21829,0 0.39688,-0.11907 0.39688,-0.26459 0,-0.14552 0.17859,-0.26458 0.39687,-0.26458 0.21829,0 0.39688,-0.092 0.39688,-0.20442 0,-0.11242 0.41672,-0.42883 0.92604,-0.70312 0.50932,-0.27429 0.92604,-0.61886 0.92604,-0.76572 0,-0.14686 0.0739,-0.19316 0.16413,-0.10289 0.18407,0.18407 3.31738,-1.32584 3.56962,-1.72016 0.089,-0.13918 0.23786,-0.24288 0.33073,-0.23045 0.5754,0.077 0.96751,-0.0178 1.27444,-0.30814 0.19229,-0.1819 0.46869,-0.33737 0.61421,-0.34548 0.62848,-0.0351 1.71979,-0.45835 1.71979,-0.66708 0,-0.12518 0.17859,-0.15907 0.39687,-0.0753 0.21829,0.0838 0.39688,0.0242 0.39688,-0.1323 0,-0.15652 0.17859,-0.21605 0.39687,-0.13229 0.21829,0.0838 0.39688,0.0337 0.39688,-0.11119 0,-0.14492 0.14883,-0.24696 0.33073,-0.22675 0.41107,0.0457 4.51522,-0.95683 4.69635,-1.14716 0.0728,-0.0764 0.72618,-0.17772 1.45204,-0.22502 1.76415,-0.11499 2.06336,-0.39903 1.83845,-1.74527 -0.0992,-0.59352 -0.25501,-1.13867 -0.34633,-1.21143 -0.0913,-0.0728 -0.19811,-0.66807 -0.23731,-1.32291 -0.0392,-0.65485 -0.14558,-1.36922 -0.23641,-1.5875 -0.0908,-0.21828 -0.13935,-0.72161 -0.10784,-1.1185 0.0315,-0.39689 -0.0311,-0.86462 -0.13912,-1.0394 -0.25888,-0.41887 -0.29735,-10.556692 -0.0407,-10.715302 0.10915,-0.0674 0.19844,-0.5323 0.19844,-1.03303 0,-0.50074 0.13013,-0.91043 0.28917,-0.91043 0.15904,0 1.49816,0.24638 2.97583,0.54751 1.47766,0.30112 2.95772,0.49569 3.28902,0.43236 0.3313,-0.0633 0.6696,-0.006 0.75177,0.12659 0.17406,0.28165 1.43257,0.31419 9.9333,0.25683 0.82301,-0.006 1.56727,-0.12479 1.65391,-0.26498 0.0866,-0.14019 0.39376,-0.19311 0.68248,-0.11761 0.28872,0.0755 0.73509,0.0454 0.99192,-0.0668 0.25684,-0.11226 0.56198,-0.18331 0.6781,-0.15788 0.43137,0.0945 3.62533,-0.59003 3.62533,-0.77694 0,-0.10674 0.23813,-0.13181 0.52917,-0.0557 0.3313,0.0866 0.52917,0.008 0.52917,-0.20998 0,-0.26839 0.0719,-0.27642 0.31337,-0.035 0.34869,0.3487 0.49931,1.37997 0.20154,1.37997 -0.26208,0 -0.87182,3.34073 -0.66949,3.6681 0.0898,0.14524 0.0422,0.33886 -0.10569,0.43027 -0.30313,0.18734 -0.37347,4.440102 -0.0783,4.735252 0.10482,0.10482 0.15523,0.60091 0.11202,1.10243 -0.0432,0.50152 0.0331,0.91185 0.16961,0.91185 0.13649,0 0.19126,0.29766 0.12171,0.66146 -0.0695,0.3638 -0.0233,0.66173 0.10284,0.66206 0.12611,2.7e-4 0.2432,0.382 0.26021,0.84816 0.017,0.46615 0.15915,0.89029 0.31586,0.94253 0.15672,0.0522 0.21936,0.26588 0.13921,0.47476 -0.0802,0.20888 -0.0177,0.37978 0.13885,0.37978 0.15652,0 0.22194,0.16324 0.14538,0.36276 -0.0766,0.19952 0.0547,0.5567 0.29179,0.79375 0.23704,0.23705 0.35646,0.43099 0.26537,0.43099 -0.26369,0 1.71284,3.62422 2.35359,4.3156 0.31937,0.3446 0.5418,0.74314 0.4943,0.88565 -0.0475,0.1425 0.20996,0.41768 0.57213,0.61151 0.36217,0.19382 0.60562,0.43796 0.541,0.54251 -0.0646,0.10456 0.38593,0.67401 1.00122,1.26546 0.98219,0.94413 1.57575,1.47737 3.23918,2.91001 0.21986,0.18935 0.50483,0.27933 0.63327,0.19996 0.12843,-0.0794 0.30179,0.0336 0.38523,0.25103 0.0834,0.21744 0.0493,0.39535 -0.0759,0.39535 -0.20873,0 -0.63203,1.09131 -0.66708,1.71979 -0.008,0.14553 -0.0922,0.32412 -0.18675,0.39688 -0.0946,0.0728 -0.21366,0.37042 -0.26458,0.66146 -0.0509,0.29104 -0.24142,0.6865 -0.42332,0.87879 -0.29034,0.30693 -0.38514,0.69904 -0.30813,1.27444 0.0124,0.0929 -0.0917,0.2417 -0.23144,0.33073 -0.39579,0.2522 -2.69576,4.97428 -2.51221,5.15783 0.0899,0.0899 -0.0111,0.16342 -0.22441,0.16342 -0.2133,0 -0.53013,0.39354 -0.70406,0.87454 -0.17393,0.481 -0.54047,1.11523 -0.81453,1.40941 -0.27407,0.29416 -0.5762,0.78031 -0.67142,1.08032 -0.0952,0.30001 -0.44925,0.84342 -0.78674,1.20757 -0.61911,0.66803 -1.07185,1.49215 -1.00433,1.82818 0.0201,0.10027 -0.19908,0.25712 -0.48717,0.34856 -0.28808,0.0914 -0.52379,0.34055 -0.52379,0.55359 0,0.21304 -0.18543,0.45851 -0.41208,0.54548 -0.22664,0.087 -0.35521,0.30633 -0.2857,0.48746 0.0695,0.18113 -0.16451,0.485 -0.52003,0.67527 -0.35552,0.19027 -0.60623,0.46646 -0.55713,0.61375 0.0491,0.1473 -0.30936,0.61781 -0.79657,1.04559 -0.48722,0.42778 -0.82335,0.84027 -0.74698,0.91665 0.0764,0.0764 -0.24704,0.40473 -0.71871,0.72967 -0.58521,0.40316 -0.9936,0.51889 -1.28582,0.3644 -0.23553,-0.12453 -0.50342,-0.15123 -0.59532,-0.0593 -0.0919,0.0919 -0.16708,0.0211 -0.16708,-0.15722 0,-0.17836 -0.11906,-0.25071 -0.26458,-0.16077 -0.14552,0.0899 -0.26458,0.0565 -0.26458,-0.0742 0,-0.32292 -1.30213,-0.89591 -1.60733,-0.70729 -0.13461,0.0832 -0.24476,0.0452 -0.24476,-0.0845 0,-0.28873 -1.853,-0.88442 -2.16032,-0.69449 -0.12151,0.0751 -0.22093,-0.003 -0.22093,-0.17451 0,-0.1808 -0.2216,-0.25311 -0.52916,-0.17268 -0.29104,0.0761 -0.52917,0.0166 -0.52917,-0.13228 0,-0.14886 -0.29765,-0.21376 -0.66146,-0.14421 -0.3638,0.0695 -0.66145,0.008 -0.66145,-0.13629 0,-0.15275 -0.43278,-0.20468 -1.03388,-0.12405 -0.56863,0.0763 -1.15134,0.0212 -1.29491,-0.12237 -0.14966,-0.14966 -0.97858,-0.19833 -1.94269,-0.11406 -0.92491,0.0808 -1.97931,0.14926 -2.34311,0.15205 -1.06399,0.008 -4.7625,0.86528 -4.7625,1.10368 0,0.11991 -0.17859,0.14948 -0.39687,0.0657 -0.21828,-0.0838 -0.39688,-0.0242 -0.39688,0.1323 0,0.15652 -0.16324,0.22194 -0.36276,0.14538 -0.19951,-0.0766 -0.52977,0.0165 -0.7339,0.20674 -0.20413,0.19027 -0.5469,0.37657 -0.76172,0.41401 -0.82664,0.14404 -3.4114,1.53524 -3.42207,1.84186 -0.006,0.17733 -0.18981,0.25389 -0.40809,0.17013 -0.21828,-0.0838 -0.39687,-0.0205 -0.39687,0.14059 0,0.1611 -0.17441,0.2929 -0.38757,0.2929 -0.21316,0 -0.51501,0.23812 -0.67077,0.52916 -0.15576,0.29104 -0.38855,0.52917 -0.51731,0.52917 -0.26966,0 -3.45082,3.12766 -3.45266,3.3946 -8e-4,0.0975 -0.36449,0.56486 -0.80849,1.03859 -0.44399,0.47372 -0.73407,0.97974 -0.64462,1.12448 0.0895,0.14474 0.0424,0.26316 -0.1046,0.26316 -0.32817,0 -2.2652,3.40781 -2.05596,3.61705 0.0826,0.0826 -0.0297,0.32989 -0.24938,0.54961 -0.21972,0.21972 -0.33685,0.56273 -0.26029,0.76225 0.0766,0.19952 0.0111,0.36276 -0.14538,0.36276 -0.15653,0 -0.21606,0.17859 -0.13229,0.39687 0.0838,0.21828 0.0468,0.39688 -0.0821,0.39688 -0.27687,0 -0.87429,2.58809 -0.67271,2.91424 0.0762,0.12331 0.0133,0.30161 -0.1398,0.39622 -0.15309,0.0946 -0.25224,0.61463 -0.22032,1.15557 0.0728,1.23329 -0.16107,1.61938 -0.98078,1.61938 -0.35522,0 -0.64687,0.0893 -0.64812,0.19844 -10e-4,0.10914 -0.9139,0.23334 -2.0281,0.27599 -1.1142,0.0427 -2.14361,0.15035 -2.28757,0.23932 -0.36835,0.22766 -11.543042,0.25284 -11.769312,0.0265 z m -46.424,-24.89732 c -0.32552,-0.34446 -0.94905,-1.08395 -1.38561,-1.64331 -0.43656,-0.55936 -1.00211,-1.23389 -1.25677,-1.49895 -0.25466,-0.26507 -0.47345,-0.53875 -0.48621,-0.60817 -0.13317,-0.72505 -0.34475,-1.19669 -0.53684,-1.19669 -0.12855,0 -0.23372,-0.17859 -0.23372,-0.39688 0,-0.21828 -0.1786,-0.39687 -0.39688,-0.39687 -0.21828,0 -0.37609,-0.0893 -0.3507,-0.19844 0.052,-0.22356 -0.61202,-1.71464 -0.85427,-1.91823 -0.0866,-0.0728 -0.43834,-0.6383 -0.78171,-1.25677 -0.34336,-0.61846 -0.72846,-1.12448 -0.85578,-1.12448 -0.12731,0 -0.15789,-0.11906 -0.068,-0.26458 0.0899,-0.14552 0.0374,-0.26458 -0.11667,-0.26458 -0.15411,0 -0.25189,-0.0893 -0.21729,-0.19844 0.10609,-0.33464 -0.64052,-1.91823 -0.90438,-1.91823 -0.13645,0 -0.17451,-0.11906 -0.0846,-0.26458 0.0899,-0.14552 0.0573,-0.26459 -0.0726,-0.26459 -0.12985,0 -0.2361,-0.16556 -0.2361,-0.36791 0,-0.56248 -0.6527,-2.01334 -0.90574,-2.01334 -0.1233,0 -0.16154,-0.16324 -0.085,-0.36276 0.0766,-0.19951 -0.026,-0.528 -0.228,-0.72996 -0.20196,-0.20197 -0.32256,-0.50116 -0.26799,-0.66487 0.0546,-0.16371 -0.079,-0.47589 -0.29687,-0.69374 -0.21784,-0.21785 -0.34191,-0.45026 -0.27571,-0.51647 0.0662,-0.0662 -0.11805,-0.81339 -0.40947,-1.66041 -0.63484,-1.84519 -0.64429,-1.98637 -0.13298,-1.98637 0.21828,0 0.39688,-0.11906 0.39688,-0.26458 0,-0.14552 0.17057,-0.26459 0.37904,-0.26459 0.20848,0 0.45517,-0.23985 0.54822,-0.53301 0.093,-0.29315 0.27111,-0.47 0.39569,-0.393 0.12459,0.077 0.72332,-0.44917 1.33052,-1.16927 0.60719,-0.72009 1.57192,-1.63354 2.14384,-2.02988 0.57192,-0.39634 0.99949,-0.84173 0.95014,-0.98976 -0.0493,-0.14802 0.2157,-0.57577 0.58897,-0.95054 0.82993,-0.83327 1.91916,-2.78867 1.68424,-3.02359 -0.0942,-0.0942 -0.0254,-0.17136 0.15294,-0.17136 0.17836,0 0.25071,-0.11907 0.16077,-0.26459 -0.0899,-0.14552 -0.0176,-0.26458 0.16078,-0.26458 0.17836,0 0.25059,-0.0737 0.1605,-0.16379 -0.0901,-0.0901 -0.007,-0.32014 0.18366,-0.51124 0.47248,-0.47248 1.83073,-4.80281 1.65229,-5.2678 -0.0787,-0.20514 -0.0279,-0.41138 0.11286,-0.45831 0.32648,-0.10883 0.65697,-6.079892 0.37272,-6.734052 -0.1173,-0.26996 -0.18577,-0.60596 -0.15214,-0.74667 0.12384,-0.51824 -0.57444,-3.58063 -0.81645,-3.58063 -0.13763,0 -0.18449,-0.10638 -0.10413,-0.23641 0.33316,-0.53907 -2.37268,-6.62419 -2.95085,-6.63611 -0.17733,-0.004 -0.25389,-0.18524 -0.17013,-0.40352 0.0838,-0.21828 0.0285,-0.39688 -0.12276,-0.39688 -0.15129,0 -0.34871,-0.23203 -0.43872,-0.51563 -0.09,-0.2836 -0.39742,-0.58982 -0.68313,-0.68051 -0.28571,-0.0907 -0.45751,-0.26513 -0.38177,-0.38767 0.0757,-0.12255 -0.60715,-0.94265 -1.51752,-1.82245 -2.32581,-2.24775 -2.57347,-2.45061 -2.81188,-2.30326 -0.11624,0.0718 -0.40762,-0.28101 -0.64753,-0.7841 -0.23991,-0.50309 -0.33197,-0.91471 -0.20457,-0.91471 0.21192,0 0.63576,-1.08616 0.6711,-1.71979 0.008,-0.14552 0.0862,-0.32412 0.17347,-0.39688 0.26805,-0.22341 1.64927,-3.45122 1.64927,-3.8542 0,-0.20852 0.10625,-0.37913 0.2361,-0.37913 0.12986,0 0.16252,-0.11906 0.0726,-0.26458 -0.0899,-0.14552 -0.0304,-0.26459 0.1323,-0.26459 0.16269,0 0.22222,-0.11906 0.13229,-0.26458 -0.0899,-0.14552 -0.0304,-0.26458 0.13229,-0.26458 0.1627,0 0.22223,-0.11906 0.13229,-0.26459 -0.0899,-0.14552 -0.0304,-0.26458 0.13229,-0.26458 0.1627,0 0.22223,-0.11906 0.13229,-0.26458 -0.0899,-0.14552 -0.0594,-0.26459 0.068,-0.26459 0.29366,0 1.4963,-2.11525 1.20575,-2.12071 -0.11845,-0.002 -0.0843,-0.0915 0.0758,-0.19844 0.46523,-0.31059 1.67921,-2.36913 1.50178,-2.54657 -0.0888,-0.0888 0.0498,-0.16136 0.30792,-0.16136 0.30843,0 0.41708,-0.13603 0.31698,-0.39687 -0.0957,-0.24929 0.003,-0.39688 0.26459,-0.39688 0.26185,0 0.36024,-0.14758 0.26458,-0.39687 -0.0951,-0.24772 0.002,-0.39688 0.25832,-0.39688 0.22584,0 0.36485,-0.13733 0.3089,-0.30517 -0.0559,-0.16785 0.14249,-0.57547 0.44097,-0.90583 0.29848,-0.33036 0.87732,-0.96665 1.28631,-1.41399 0.40898,-0.44733 0.68094,-0.91473 0.60434,-1.03867 -0.0766,-0.12393 0.15705,-0.38392 0.51922,-0.57775 0.36218,-0.19383 0.61903,-0.4708 0.5708,-0.6155 -0.0482,-0.1447 0.36891,-0.6756 0.92697,-1.17978 0.55807,-0.50417 0.95275,-0.9786 0.87707,-1.05429 -0.0757,-0.0757 0.0978,-0.30251 0.3856,-0.50406 0.4647,-0.32549 0.74526,-0.25966 2.50926,0.5888 1.09234,0.52539 2.1063,0.88095 2.25325,0.79013 0.14694,-0.0908 0.26717,-0.0263 0.26717,0.14339 0,0.16968 0.1709,0.24292 0.37978,0.16277 0.20888,-0.0802 0.42252,-0.0175 0.47476,0.1392 0.0522,0.15672 0.47638,0.29886 0.94253,0.31587 0.46616,0.017 0.84783,0.1341 0.84816,0.26021 3.4e-4,0.1261 0.3011,0.17183 0.66837,0.10162 0.36728,-0.0702 0.73649,-0.0165 0.82048,0.11942 0.084,0.13589 0.52762,0.2225 0.98587,0.19246 0.45825,-0.03 1.03655,0.0322 1.28512,0.13838 0.71225,0.30414 6.90439,-0.22829 7.02977,-0.60445 0.0464,-0.13906 0.3167,-0.19205 0.60076,-0.11777 0.29596,0.0774 0.51648,0.002 0.51648,-0.17599 0,-0.17109 0.1099,-0.24314 0.24421,-0.16013 0.32031,0.19796 3.82293,-1.07633 3.94223,-1.43422 0.0506,-0.15195 0.20098,-0.20898 0.33408,-0.12672 0.13309,0.0823 0.24198,0.004 0.24198,-0.17474 0,-0.17837 0.0746,-0.24967 0.16584,-0.15846 0.22439,0.2244 1.68625,-0.55046 1.68625,-0.8938 0,-0.15038 0.1199,-0.1993 0.26645,-0.10873 0.14655,0.0906 0.335,-0.014 0.41877,-0.23226 0.0838,-0.21832 0.3057,-0.33809 0.49316,-0.26615 0.18746,0.0719 0.41199,-0.0546 0.49896,-0.28129 0.087,-0.22665 0.32034,-0.41208 0.5186,-0.41208 0.19826,0 0.51977,-0.29766 0.71447,-0.66146 0.19471,-0.3638 0.48912,-0.66146 0.65427,-0.66146 0.36288,0 2.2016,-1.85019 1.84503,-1.85654 -0.13768,-0.002 0.14325,-0.25647 0.62431,-0.56449 0.51706,-0.33107 0.81793,-0.70785 0.73591,-0.92158 -0.0763,-0.19886 -0.0277,-0.36155 0.108,-0.36155 0.34449,0 1.59554,-1.89161 1.42913,-2.16087 -0.0749,-0.12121 -0.005,-0.22038 0.15616,-0.22038 0.34608,0 1.6232,-2.644174 1.42894,-2.958496 -0.0736,-0.11908 -0.0173,-0.216509 0.12513,-0.216509 0.33629,0 1.18518,-2.55079 0.96659,-2.904471 -0.092,-0.148791 -0.0272,-0.270529 0.14386,-0.270529 0.18074,0 0.25311,-0.221578 0.17275,-0.528903 -0.0761,-0.290896 -0.0234,-0.599924 0.11705,-0.686729 0.14045,-0.0868 0.23064,-0.414345 0.20041,-0.727867 -0.0302,-0.313523 0.0356,-0.779863 0.14622,-1.03631 0.11065,-0.256447 0.15426,-0.792229 0.0969,-1.190625 -0.10266,-0.713107 -0.0801,-0.725427 1.45539,-0.793264 0.85781,-0.0379 1.6934,-0.151559 1.85685,-0.252578 0.16345,-0.10102 0.68287,-0.150442 1.15428,-0.109829 0.4714,0.04061 0.99135,-0.0091 1.15545,-0.110555 0.1641,-0.101419 1.38747,-0.226537 2.71859,-0.278039 3.5416,-0.137026 3.76171,-0.13506 6.653572,0.05943 1.45521,0.09787 3.12207,0.207662 3.70415,0.243981 0.58209,0.03632 1.23694,0.126446 1.45521,0.200281 0.78985,0.267171 4.2723,0.720241 4.49206,0.584421 0.12389,-0.07657 0.26518,-0.02746 0.31399,0.109133 0.0488,0.136589 0.56499,0.286159 1.14708,0.332378 0.96802,0.07686 1.07668,0.163068 1.27333,1.010075 0.11825,0.509322 0.20154,1.491588 0.18509,2.182812 -0.0165,0.691224 0.0786,1.256771 0.21134,1.256771 0.13267,0 0.18434,0.297656 0.1148,0.661458 -0.0769,0.402156 -0.005,0.661458 0.18459,0.661458 0.17108,0 0.23439,0.124021 0.14071,0.275601 -0.20024,0.323988 0.85447,3.957735 1.14875,3.957735 0.11037,0 0.2188,0.24082 0.24098,0.53515 0.052,0.68988 1.61768,3.4336 1.95941,3.4336 0.14343,0 0.18667,0.1199 0.0961,0.26645 -0.0906,0.14655 0.0208,0.33762 0.24745,0.4246 0.22667,0.087 0.35129,0.25659 0.27693,0.3769 -0.0744,0.12032 0.13141,0.4055 0.45727,0.63374 0.32585,0.22823 0.4869,0.41497 0.35789,0.41497 -0.26252,0 3.18744,3.67828 3.84327,4.09762 0.23054,0.14741 1.11904,0.73434 1.97445,1.30429 0.85542,0.56996 1.70859,1.03629 1.89595,1.03629 0.18735,0 0.34065,0.10624 0.34065,0.2361 0,0.12985 0.11906,0.16252 0.26458,0.0726 0.14552,-0.0899 0.26458,-0.0304 0.26458,0.13229 0,0.1627 0.11906,0.22223 0.26459,0.13229 0.14552,-0.0899 0.26458,-0.0565 0.26458,0.0742 0,0.32293 1.30212,0.89592 1.60733,0.70729 0.13461,-0.0832 0.24475,-0.0124 0.24475,0.15724 0,0.16968 0.1786,0.23997 0.39688,0.15621 0.21828,-0.0838 0.39687,-0.0242 0.39687,0.13229 0,0.15653 0.1709,0.21901 0.37979,0.13885 0.20888,-0.0802 0.41828,-0.0303 0.46533,0.11091 0.047,0.14115 0.50122,0.29929 1.00927,0.35141 0.50806,0.0521 1.1321,0.18081 1.38677,0.28597 0.25466,0.10516 0.63779,0.12413 0.85141,0.0422 0.21362,-0.082 0.45877,-0.0352 0.54478,0.10398 0.20411,0.33026 5.86703,0.33026 6.07114,0 0.086,-0.13916 0.33116,-0.18595 0.54478,-0.10398 0.21362,0.082 0.59676,0.0585 0.85142,-0.0522 0.25466,-0.11069 0.67138,-0.17548 0.92604,-0.14397 0.25466,0.0315 0.46302,-0.0581 0.46302,-0.19915 0,-0.14104 0.23813,-0.19417 0.52917,-0.11806 0.29104,0.0761 0.52916,0.009 0.52916,-0.14876 0,-0.15793 0.1786,-0.21861 0.39688,-0.13484 0.21828,0.0838 0.39687,0.0242 0.39687,-0.1323 0,-0.15652 0.1786,-0.21605 0.39688,-0.13229 0.21828,0.0838 0.39687,0.0242 0.39687,-0.13229 0,-0.15652 0.16325,-0.22194 0.36276,-0.14538 0.19953,0.0766 0.52978,-0.0165 0.73392,-0.20674 0.20413,-0.19027 0.48737,-0.36689 0.62943,-0.39249 0.14205,-0.0256 0.43687,-0.10834 0.65515,-0.18386 0.39124,-0.13537 2.38125,2.15347 2.38125,2.73882 0,0.14834 0.11907,0.26971 0.26459,0.26971 0.14552,0 0.26458,0.12307 0.26458,0.2735 0,0.15042 0.33574,0.6017 0.7461,1.00284 0.41036,0.40113 0.69809,0.87337 0.63941,1.04941 -0.0587,0.17605 0.0818,0.32008 0.31223,0.32008 0.23041,0 0.4034,0.0893 0.38442,0.19844 -0.0776,0.44646 0.70384,1.91823 1.01856,1.91823 0.18637,0 0.32476,0.0893 0.30753,0.19843 -0.0743,0.47051 0.0642,0.79537 0.57081,1.33918 0.29671,0.31848 0.47411,0.57905 0.39422,0.57905 -0.22428,0 2.26823,4.86908 2.60518,5.08918 0.16367,0.10691 0.21448,0.19621 0.11291,0.19844 -0.27014,0.006 0.32676,1.59155 0.59913,1.59155 0.12671,0 0.16775,0.16324 0.0912,0.36276 -0.0766,0.19952 0.0406,0.54253 0.26029,0.76225 0.21971,0.21972 0.35117,0.4478 0.29214,0.50684 -0.059,0.059 0.18476,0.91206 0.54177,1.89561 0.35701,0.98355 0.64911,1.93956 0.64911,2.12447 0,0.1849 -0.71437,0.67763 -1.5875,1.09494 -0.87312,0.41732 -1.58751,0.85593 -1.58751,0.97469 0,0.11877 -0.0893,0.20184 -0.19844,0.18461 -0.53389,-0.0843 -1.12085,0.0637 -1.4363,0.36206 -0.1923,0.1819 -0.4687,0.33737 -0.61422,0.34548 -0.62848,0.035 -1.71979,0.45835 -1.71979,0.66708 0,0.12518 -0.17859,0.15907 -0.39687,0.0753 -0.21829,-0.0838 -0.39688,-0.0242 -0.39688,0.1323 0,0.15652 -0.17859,0.21605 -0.39687,0.13229 -0.21829,-0.0838 -0.39711,-0.0503 -0.39741,0.0744 -2.6e-4,0.12471 -0.37826,0.25335 -0.83993,0.28586 -0.46168,0.0325 -0.90793,0.15158 -0.99166,0.26458 -0.0837,0.11301 -0.56433,0.23909 -1.06798,0.28019 -0.50365,0.0411 -0.9799,0.16016 -1.05834,0.26459 -0.0784,0.10442 -0.55932,0.22138 -1.06864,0.25991 -0.50933,0.0385 -1.10464,0.14492 -1.32292,0.23641 -0.21828,0.0915 -0.7243,0.14029 -1.12448,0.10844 -0.40018,-0.0318 -0.7276,0.0404 -0.7276,0.16047 0,0.26172 -0.49673,0.28769 -7.16142,0.37444 -2.84736,0.0371 -5.3206,-0.0213 -5.49608,-0.1298 -0.17548,-0.10845 -0.64378,-0.1714 -1.04067,-0.1399 -0.39689,0.0315 -0.93176,-0.0327 -1.1886,-0.1428 -0.25683,-0.11005 -0.70332,-0.13828 -0.99218,-0.0627 -0.28887,0.0755 -0.52522,0.0156 -0.52522,-0.13331 0,-0.14886 -0.29765,-0.21376 -0.66146,-0.14422 -0.3638,0.0695 -0.66145,0.01 -0.66145,-0.13229 0,-0.1423 -0.29766,-0.20183 -0.66146,-0.13229 -0.3638,0.0695 -0.66146,0.01 -0.66146,-0.1323 0,-0.14232 -0.23813,-0.19649 -0.52917,-0.12038 -0.29104,0.0761 -0.52916,0.0166 -0.52916,-0.13229 0,-0.14887 -0.23813,-0.2084 -0.52917,-0.13229 -0.29104,0.0761 -0.52917,0.0552 -0.52917,-0.0466 0,-0.10172 -0.56554,-0.33543 -1.25677,-0.51937 -0.69122,-0.18393 -2.2688,-0.73645 -3.50573,-1.22782 -1.23692,-0.49136 -2.42755,-0.93111 -2.64583,-0.97721 -0.21828,-0.0461 -0.45641,-0.15751 -0.52917,-0.24757 -0.21433,-0.26528 -2.91041,-1.57878 -2.91041,-1.41791 0,0.0809 -0.26058,-0.0957 -0.57906,-0.39242 -0.31848,-0.29671 -0.67567,-0.53947 -0.79375,-0.53947 -0.11808,0 -0.27728,0.003 -0.35378,0.006 -0.0765,0.004 -0.40392,-0.26609 -0.72761,-0.59901 -0.32368,-0.33292 -0.91593,-0.7726 -1.31612,-0.97705 -0.40018,-0.20446 -0.7276,-0.47069 -0.7276,-0.59162 0,-0.12093 -0.17859,-0.21987 -0.39688,-0.21987 -0.21828,0 -0.39687,-0.11906 -0.39687,-0.26458 0,-0.14552 -0.13231,-0.26459 -0.29401,-0.26459 -0.16171,0 -0.87608,-0.48733 -1.5875,-1.08297 -0.71142,-0.59563 -1.29349,-1.0269 -1.29349,-0.95837 0,0.0685 -0.97362,-0.87288 -2.1636,-2.09203 -1.18997,-1.21914 -2.24488,-2.21663 -2.34423,-2.21663 -0.22469,0 -1.615642,1.33663 -3.101882,2.98073 -0.62008,0.68595 -1.2154,1.26356 -1.32292,1.28358 -0.56198,0.10464 -0.85213,0.33078 -0.99271,0.77372 -0.0857,0.27017 -0.31304,0.43092 -0.5051,0.35722 -0.19205,-0.0737 -0.42034,0.0514 -0.50731,0.27809 -0.087,0.22664 -0.33244,0.41208 -0.54549,0.41208 -0.21304,0 -0.46099,0.23205 -0.55101,0.51567 -0.099,0.31199 -0.31506,0.45756 -0.547,0.36856 -0.21083,-0.0809 -0.38333,-0.0153 -0.38333,0.1458 0,0.16109 -0.17859,0.29289 -0.39687,0.29289 -0.21828,0 -0.39688,0.11906 -0.39688,0.26458 0,0.14552 -0.17859,0.26458 -0.39687,0.26458 -0.21828,0 -0.39688,0.1786 -0.39688,0.39688 0,0.21828 -0.0893,0.36994 -0.19843,0.33702 -0.32637,-0.0984 -2.97657,1.44499 -2.97657,1.7335 0,0.14665 -0.0743,0.19236 -0.16505,0.10158 -0.15543,-0.15543 -2.19501,0.7527 -2.48078,1.10459 -0.0728,0.0896 -0.31088,0.2002 -0.52917,0.2458 -0.21828,0.0456 -1.43978,0.49284 -2.71445,0.99386 -1.27467,0.50103 -2.85225,1.05396 -3.50573,1.22874 -0.65348,0.17478 -1.18815,0.40101 -1.18815,0.50272 0,0.10172 -0.23812,0.12267 -0.52917,0.0466 -0.29104,-0.0761 -0.52916,-0.0166 -0.52916,0.1323 0,0.14887 -0.23813,0.2084 -0.52917,0.13229 -0.29104,-0.0761 -0.5297,-0.0352 -0.53035,0.0909 -5.3e-4,0.12611 -0.43567,0.25187 -0.9667,0.27946 -0.53104,0.0276 -1.06431,0.20619 -1.18507,0.39688 -0.24898,0.39317 10e-4,2.15516 0.32393,2.28203 0.11649,0.0458 0.14621,0.25414 0.0661,0.46302 -0.0802,0.20887 -0.0558,0.58814 0.0542,0.8428 0.10997,0.25466 0.17398,0.72891 0.14225,1.0539 -0.0317,0.32498 0.0335,0.73838 0.14489,0.91867 0.11142,0.18028 0.17032,0.77458 0.13089,1.32066 -0.0394,0.54608 0.007,1.12057 0.1037,1.27665 0.22876,0.37014 0.22876,7.820302 0,8.190442 -0.0965,0.15608 -0.15058,0.72725 -0.12026,1.26927 0.0303,0.54203 -0.0337,1.19564 -0.14237,1.45248 -0.10862,0.25683 -0.13568,0.70332 -0.0601,0.99218 0.0755,0.28887 0.0431,0.52522 -0.072,0.52522 -0.20313,0 -0.6735,2.5718 -0.64118,3.50573 0.009,0.25466 -0.0966,0.46302 -0.23428,0.46302 -0.13767,0 -0.18952,0.23241 -0.11524,0.51648 0.0743,0.28406 0.0261,0.55279 -0.10704,0.59718 -0.13316,0.0444 -0.26935,0.46658 -0.30264,0.9382 -0.0333,0.47163 -0.16257,0.85774 -0.28728,0.85803 -0.12471,2.6e-4 -0.15822,0.17912 -0.0744,0.3974 0.0838,0.21828 0.0242,0.39687 -0.1323,0.39687 -0.15652,0 -0.21605,0.1786 -0.13229,0.39688 0.0838,0.21828 0.0242,0.39687 -0.13229,0.39687 -0.15652,0 -0.21606,0.1786 -0.13229,0.39688 0.0838,0.21828 0.056,0.39687 -0.0616,0.39687 -0.22935,0 -1.00159,2.11656 -0.89296,2.4474 0.0358,0.10914 -0.0447,0.19844 -0.1789,0.19844 -0.24651,0 -0.96888,1.81553 -0.8685,2.18281 0.0298,0.10914 -0.0719,0.19844 -0.22597,0.19844 -0.15411,0 -0.20661,0.11906 -0.11667,0.26458 0.0899,0.14552 0.0304,0.26458 -0.13229,0.26458 -0.1627,0 -0.22223,0.11907 -0.1323,0.26459 0.0899,0.14552 0.0594,0.26458 -0.068,0.26458 -0.32368,0 -1.41525,2.00047 -1.20583,2.20989 0.0943,0.0943 -0.0271,0.17136 -0.26961,0.17136 -0.38276,0 -0.57688,0.46216 -0.47231,1.12448 0.0172,0.10914 -0.14726,0.19844 -0.36554,0.19844 -0.21828,0 -0.39687,0.17859 -0.39687,0.39687 0,0.21828 -0.11907,0.39688 -0.26459,0.39688 -0.14552,0 -0.26458,0.17859 -0.26458,0.39687 0,0.21828 -0.1318,0.39688 -0.29289,0.39688 -0.16109,0 -0.22436,0.17859 -0.1406,0.39687 0.0928,0.24175 5.3e-4,0.39688 -0.23627,0.39688 -0.21372,0 -0.38857,0.10837 -0.38857,0.24082 0,0.13245 -0.47902,0.84683 -1.06449,1.5875 -0.58547,0.74067 -1.00485,1.34668 -0.93195,1.34668 0.0729,0 -0.39673,0.48785 -1.04359,1.08411 -0.64687,0.59626 -1.15022,1.16944 -1.11857,1.27373 0.0746,0.24585 -1.67837,2.00778 -1.99759,2.00778 -0.30579,0 -2.0459,1.74649 -2.0459,2.0534 0,0.12474 -0.10315,0.16304 -0.22922,0.0851 -0.12607,-0.0779 -0.44218,0.0936 -0.70247,0.38126 -0.26028,0.28761 -0.60444,0.52293 -0.76479,0.52293 -0.16036,0 -0.70133,0.44648 -1.20215,0.99219 -0.50083,0.5457 -0.97626,0.98135 -1.0565,0.96811 -0.36055,-0.0595 -1.07195,0.24034 -1.07195,0.45181 0,0.12855 -0.17859,0.23372 -0.39688,0.23372 -0.21828,0 -0.39687,0.1786 -0.39687,0.39688 0,0.21828 -0.0893,0.38277 -0.19844,0.36554 -0.66231,-0.10458 -1.12448,0.0895 -1.12448,0.47231 0,0.24253 -0.0746,0.36634 -0.16583,0.27513 -0.0912,-0.0912 -0.50948,0.0119 -0.92949,0.22906 -0.71799,0.37129 -0.79905,0.35745 -1.35552,-0.23138 z"
         id="path306" /></g><path
       style="fill:#000000;stroke-width:0.264583"
       id="path302"
       d="" /></g></svg>
